<svg width="165" height="136" viewBox="0 0 165 136" fill="none" xmlns="http://www.w3.org/2000/svg">
<rect class="circle" width="135.717" height="135.717" rx="67.8584" fill="#FFFBCA"/>
<path d="M97.3584 104.976C134.716 104.976 165 104.005 165 102.808C165 101.611 134.716 100.64 97.3584 100.64C60.001 100.64 29.7169 101.611 29.7169 102.808C29.7169 104.005 60.001 104.976 97.3584 104.976Z" fill="#E6E6E6"/>
<path d="M154.096 30.9067H108.275V30.667C108.275 30.5746 108.257 30.4831 108.221 30.3977C108.186 30.3123 108.134 30.2348 108.069 30.1694C108.003 30.1041 107.926 30.0523 107.84 30.0169C107.755 29.9815 107.663 29.9633 107.57 29.9633H88.2025C88.11 29.9633 88.0183 29.9815 87.9329 30.0169C87.8474 30.0523 87.7697 30.1041 87.7043 30.1694C87.6389 30.2348 87.587 30.3123 87.5516 30.3977C87.5162 30.4831 87.498 30.5746 87.498 30.667V30.9067H41.4883C41.0813 30.9067 40.6782 30.9868 40.3022 31.1424C39.9261 31.298 39.5845 31.526 39.2967 31.8135C39.0089 32.101 38.7805 32.4423 38.6248 32.8179C38.469 33.1936 38.3889 33.5962 38.3889 34.0027V96.6768C38.3889 97.0834 38.469 97.486 38.6248 97.8616C38.7805 98.2373 39.0089 98.5786 39.2967 98.8661C39.5845 99.1536 39.9261 99.3816 40.3022 99.5372C40.6782 99.6928 41.0813 99.7729 41.4883 99.7729H154.096C154.918 99.7729 155.706 99.4467 156.287 98.8661C156.869 98.2854 157.195 97.498 157.195 96.6768V34.0027C157.195 33.1816 156.869 32.3941 156.287 31.8135C155.706 31.2329 154.918 30.9067 154.096 30.9067Z" fill="#193E4B"/>
<path d="M43.9458 36.0338C43.8511 36.0348 43.7606 36.0735 43.6943 36.1413C43.628 36.2091 43.5912 36.3005 43.5921 36.3954V97.2433C43.5912 97.3382 43.628 97.4296 43.6943 97.4974C43.7606 97.5652 43.8511 97.6038 43.9458 97.6049H151.638C151.733 97.6038 151.823 97.5652 151.89 97.4974C151.956 97.4296 151.993 97.3382 151.992 97.2433V36.3954C151.993 36.3005 151.956 36.2091 151.89 36.1413C151.823 36.0735 151.733 36.0348 151.638 36.0338H43.9458Z" fill="white"/>
<path d="M97.5752 34.7329C98.1739 34.7329 98.6592 34.2476 98.6592 33.6489C98.6592 33.0502 98.1739 32.5649 97.5752 32.5649C96.9765 32.5649 96.4912 33.0502 96.4912 33.6489C96.4912 34.2476 96.9765 34.7329 97.5752 34.7329Z" fill="#FFF34E"/>
<path d="M159.129 95.804H148.331V94.6813C148.331 94.6197 148.261 94.5697 148.176 94.5697H144.474C144.389 94.5697 144.319 94.6197 144.319 94.6813V95.8041H142.005V94.6813C142.005 94.6197 141.936 94.5697 141.851 94.5697H138.149C138.063 94.5697 137.994 94.6197 137.994 94.6813V95.8041H135.68V94.6813C135.68 94.6197 135.611 94.5697 135.526 94.5697H131.823C131.738 94.5697 131.669 94.6197 131.669 94.6813V95.8041H129.355V94.6813C129.355 94.6197 129.286 94.5697 129.201 94.5697H125.498C125.413 94.5697 125.344 94.6197 125.344 94.6813V95.8041H123.03V94.6813C123.03 94.6197 122.961 94.5697 122.876 94.5697H119.173C119.088 94.5697 119.019 94.6197 119.019 94.6813V95.8041H116.705V94.6813C116.705 94.6197 116.636 94.5697 116.551 94.5697H112.848C112.763 94.5697 112.694 94.6197 112.694 94.6813V95.8041H110.38V94.6813C110.38 94.6197 110.311 94.5697 110.225 94.5697H81.2225C81.1373 94.5697 81.0682 94.6197 81.0682 94.6813V95.8041H78.7541V94.6813C78.7541 94.6197 78.6851 94.5697 78.5999 94.5697H74.8974C74.8122 94.5697 74.7431 94.6197 74.7431 94.6813V95.8041H72.429V94.6813C72.429 94.6197 72.36 94.5697 72.2747 94.5697H68.5722C68.487 94.5697 68.418 94.6197 68.418 94.6813V95.8041H66.1039V94.6813C66.1039 94.6197 66.0348 94.5697 65.9496 94.5697H62.2471C62.1619 94.5697 62.0928 94.6197 62.0928 94.6813V95.8041H59.7788V94.6813C59.7788 94.6197 59.7097 94.5697 59.6245 94.5697H55.922C55.8368 94.5697 55.7677 94.6197 55.7677 94.6813V95.8041H53.4537V94.6813C53.4537 94.6197 53.3846 94.5697 53.2994 94.5697H49.5969C49.5117 94.5697 49.4426 94.6197 49.4426 94.6813V95.8041H47.1285V94.6813C47.1285 94.6197 47.0595 94.5697 46.9743 94.5697H43.2717C43.1865 94.5697 43.1175 94.6197 43.1175 94.6813V95.8041H36.021C33.9761 95.8041 32.3185 97.0037 32.3185 98.4835V99.6951C32.3185 101.175 33.9762 102.374 36.021 102.374H159.129C161.174 102.374 162.832 101.175 162.832 99.6951V98.4835C162.832 97.0037 161.174 95.804 159.129 95.804Z" fill="#193E4B"/>
<path d="M139.101 48.1746H99.843C99.4287 48.1746 99.0929 48.5121 99.0929 48.9285V86.8782C99.0929 87.2946 99.4287 87.6321 99.843 87.6321H139.101C139.515 87.6321 139.851 87.2946 139.851 86.8782V48.9285C139.851 48.5121 139.515 48.1746 139.101 48.1746Z" fill="#E6E6E6"/>
<path d="M63.1205 71.5889C62.8724 71.5889 62.6705 71.7834 62.6705 72.0225C62.6705 72.2615 62.8724 72.4561 63.1205 72.4561H84.3341C84.5822 72.4561 84.7841 72.2615 84.7841 72.0225C84.7841 71.7834 84.5822 71.5889 84.3341 71.5889H63.1205Z" fill="#E6E6E6"/>
<path d="M63.118 74.1904C62.8712 74.1904 62.6705 74.4822 62.6705 74.8408C62.6705 75.1994 62.8712 75.4912 63.118 75.4912H72.1958C72.4425 75.4912 72.6433 75.1994 72.6433 74.8408C72.6433 74.4822 72.4425 74.1904 72.1958 74.1904H63.118Z" fill="#E6E6E6"/>
<path d="M63.1205 77.2257C62.8724 77.2257 62.6705 77.5175 62.6705 77.8761C62.6705 78.2347 62.8724 78.5265 63.1205 78.5265H84.3341C84.5822 78.5265 84.7841 78.2347 84.7841 77.8761C84.7841 77.5175 84.5822 77.2257 84.3341 77.2257H63.1205Z" fill="#E6E6E6"/>
<path d="M63.118 80.2609C62.8712 80.2609 62.6705 80.4554 62.6705 80.6945C62.6705 80.9335 62.8712 81.1281 63.118 81.1281H72.1958C72.4425 81.1281 72.6433 80.9335 72.6433 80.6945C72.6433 80.4554 72.4425 80.2609 72.1958 80.2609H63.118Z" fill="#E6E6E6"/>
<path d="M65.8224 51.6433H79.0305C79.1764 51.6435 79.3163 51.7011 79.4194 51.8035C79.5226 51.9058 79.5807 52.0446 79.5808 52.1894V65.8396C79.5807 65.9844 79.5226 66.1232 79.4194 66.2256C79.3163 66.3279 79.1764 66.3855 79.0305 66.3857H65.8224C65.6765 66.3855 65.5366 66.3279 65.4334 66.2256C65.3302 66.1232 65.2722 65.9844 65.272 65.8396V52.1894C65.2722 52.0446 65.3302 51.9058 65.4334 51.8035C65.5366 51.7011 65.6765 51.6435 65.8224 51.6433Z" fill="#FFF34E"/>
<path d="M76.1754 63.3506C76.224 63.3506 76.2721 63.3451 76.3171 63.3342C76.362 63.3233 76.4028 63.3074 76.4372 63.2872C76.4716 63.2671 76.4988 63.2432 76.5175 63.2168C76.5361 63.1905 76.5456 63.1623 76.5456 63.1338C76.5456 63.1053 76.5361 63.0771 76.5175 63.0507C76.4988 63.0244 76.4716 63.0005 76.4372 62.9804C76.4028 62.9602 76.362 62.9443 76.3171 62.9334C76.2721 62.9225 76.224 62.9169 76.1754 62.917H68.6775C68.6289 62.9169 68.5808 62.9225 68.5358 62.9334C68.4909 62.9443 68.4501 62.9602 68.4157 62.9804C68.3813 63.0005 68.3541 63.0244 68.3354 63.0507C68.3168 63.0771 68.3073 63.1053 68.3073 63.1338C68.3073 63.1623 68.3168 63.1905 68.3354 63.2168C68.3541 63.2432 68.3813 63.2671 68.4157 63.2872C68.4501 63.3074 68.4909 63.3233 68.5358 63.3342C68.5808 63.3451 68.6289 63.3506 68.6775 63.3506H76.1754Z" fill="white"/>
<path d="M76.176 61.1826C76.274 61.1826 76.368 61.1369 76.4374 61.0556C76.5067 60.9743 76.5456 60.864 76.5456 60.749C76.5456 60.634 76.5067 60.5237 76.4374 60.4424C76.368 60.3611 76.274 60.3154 76.176 60.3154H68.6769C68.6284 60.3154 68.5803 60.3266 68.5355 60.3484C68.4906 60.3702 68.4498 60.4022 68.4155 60.4424C68.3812 60.4827 68.354 60.5305 68.3354 60.5831C68.3168 60.6357 68.3073 60.6921 68.3073 60.749C68.3073 60.806 68.3168 60.8624 68.3354 60.915C68.354 60.9676 68.3812 61.0154 68.4155 61.0556C68.4498 61.0959 68.4906 61.1278 68.5355 61.1496C68.5803 61.1714 68.6284 61.1826 68.6769 61.1826H76.176Z" fill="white"/>
<path d="M72.6432 54.2449C73.072 54.2449 73.4912 54.3847 73.8477 54.6468C74.2042 54.9088 74.4821 55.2813 74.6462 55.717C74.8103 56.1528 74.8532 56.6323 74.7696 57.0949C74.6859 57.5575 74.4794 57.9825 74.1762 58.316C73.873 58.6495 73.4867 58.8766 73.0662 58.9686C72.6456 59.0607 72.2097 59.0134 71.8136 58.8329C71.4174 58.6524 71.0788 58.3468 70.8406 57.9546C70.6024 57.5624 70.4752 57.1013 70.4752 56.6297C70.4759 55.9974 70.7045 55.3912 71.1109 54.9442C71.5174 54.4971 72.0684 54.2456 72.6432 54.2449Z" fill="white"/>
</svg>
