<svg width="1440" height="419" viewBox="0 0 1440 419" fill="none" xmlns="http://www.w3.org/2000/svg">
<path d="M1235.25 17.5131C1236.98 17.5131 1238.67 16.9995 1240.1 16.0373C1241.54 15.0752 1242.66 13.7076 1243.32 12.1075C1243.98 10.5075 1244.15 8.74684 1243.82 7.04824C1243.48 5.34963 1242.65 3.78936 1241.43 2.56474C1240.21 1.34011 1238.65 0.506134 1236.96 0.16826C1235.26 -0.169614 1233.51 0.00379055 1231.91 0.666552C1230.31 1.32931 1228.95 2.45167 1227.99 3.89167C1227.03 5.33168 1226.52 7.02467 1226.52 8.75655C1226.52 11.0781 1227.44 13.3038 1229.08 14.9454C1230.72 16.587 1232.94 17.5104 1235.25 17.5131ZM1235.25 1.45943C1236.69 1.45943 1238.1 1.8874 1239.29 2.68922C1240.49 3.49104 1241.42 4.63068 1241.98 5.96405C1242.53 7.29743 1242.67 8.76463 1242.39 10.1801C1242.11 11.5956 1241.42 12.8959 1240.4 13.9164C1239.38 14.9369 1238.08 15.6319 1236.67 15.9134C1235.26 16.195 1233.8 16.0505 1232.47 15.4982C1231.14 14.9459 1230 14.0106 1229.2 12.8106C1228.4 11.6106 1227.97 10.1998 1227.97 8.75655C1227.98 6.82189 1228.74 4.96709 1230.11 3.59908C1231.47 2.23108 1233.32 1.46158 1235.25 1.45943Z" fill="#193F4C"/>
<path d="M690.299 53.0003C692.026 53.0003 693.715 52.4867 695.151 51.5245C696.587 50.5623 697.707 49.1948 698.368 47.5947C699.029 45.9947 699.202 44.234 698.865 42.5354C698.528 40.8368 697.696 39.2765 696.474 38.0519C695.253 36.8273 693.697 35.9933 692.003 35.6554C690.308 35.3176 688.552 35.491 686.957 36.1537C685.361 36.8165 683.997 37.9388 683.037 39.3789C682.077 40.8189 681.565 42.5118 681.565 44.2437C681.568 46.5653 682.489 48.791 684.126 50.4326C685.763 52.0742 687.983 52.9976 690.299 53.0003ZM690.299 36.9466C691.738 36.9466 693.145 37.3746 694.342 38.1764C695.539 38.9782 696.472 40.1179 697.023 41.4512C697.574 42.7846 697.718 44.2518 697.437 45.6673C697.156 47.0828 696.463 48.383 695.445 49.4036C694.427 50.4241 693.13 51.1191 691.719 51.4006C690.307 51.6822 688.843 51.5377 687.514 50.9854C686.184 50.4331 685.047 49.4978 684.247 48.2978C683.448 47.0978 683.021 45.687 683.021 44.2437C683.023 42.3091 683.79 40.4543 685.155 39.0863C686.519 37.7183 688.369 36.9488 690.299 36.9466Z" fill="#193F4C"/>
<path d="M846.728 244.665H861.096V230.26H846.728V244.665ZM859.991 243.557H847.833V231.368H859.991L859.991 243.557Z" fill="#193F4C"/>
<path d="M1189.06 231.588L1198.86 221.054L1188.35 211.229L1178.55 221.763L1189.06 231.588ZM1197.29 221.109L1189 230.022L1180.11 221.708L1188.4 212.795L1197.29 221.109Z" fill="#193F4C"/>
<path d="M-3 418.903C17.6903 411.034 385.193 366.192 544.924 372.115C704.654 378.038 915.708 315.034 906.199 320.635L900.606 309.419C902.547 308.77 910.96 315.259 910.96 315.259L903.842 282.816C913.549 284.113 918.079 317.206 918.079 317.206L929.081 306.175L923.666 318.664C968.114 313.981 1006.47 312.52 1038.71 312.855L1033.92 303.255C1035.87 302.606 1044.28 309.095 1044.28 309.095L1037.16 276.651C1046.87 277.949 1051.4 311.041 1051.4 311.041L1062.4 300.011L1056.66 313.238C1078.75 313.882 1100.79 315.661 1122.69 318.569C1117.91 303.648 1101.23 289.304 1101.23 289.304C1114.06 293.305 1120.73 299.824 1124.18 305.866C1124.88 275.211 1120.18 244.673 1110.29 215.658C1110.29 215.658 1136.18 274.056 1132.29 312.988L1131.8 319.904C1154.32 323.426 1440.5 418.903 1440.5 418.903H-3Z" fill="#193F4C"/>
<path opacity="0.3" d="M1020.4 251.17C964.529 251.17 919.236 205.758 919.236 149.74C919.236 93.7219 964.529 48.3102 1020.4 48.3102C1076.27 48.3102 1121.57 93.7219 1121.57 149.74C1121.57 205.758 1076.27 251.17 1020.4 251.17Z" fill="#FFF34E"/>
<path d="M1061.95 20.7014L1129.31 102.643L1029.61 220.603L963.155 142.264L1061.95 20.7014Z" fill="#FFF34E"/>
<path opacity="0.1" d="M1061.95 20.7014L1129.31 102.643L1029.61 220.603L963.155 142.264L1061.95 20.7014Z" fill="#193F4C"/>
<path d="M1126.61 103.544C1125.12 100.855 1123.27 98.3814 1121.12 96.1915L1059.25 33.3077C1059.25 33.3077 1037.7 29.7059 1033.21 40.5114L1112.24 105.345L1126.61 103.544Z" fill="#F2F2F2"/>
<path d="M1129.75 102.193L1038.15 242.665C1038.15 242.665 1029.17 248.968 1020.18 245.366L926.332 181.884L1026.02 30.6063L1115.83 100.842L1129.75 102.193Z" fill="#FFF34E"/>
<path d="M1037.22 52.5283L1094.71 93.9432L1093.86 95.1283L1036.37 53.7134L1037.22 52.5283Z" fill="#193F4C"/>
<path d="M1095.47 109.444L1096.68 110.249L1021.24 224.608L1020.03 223.803L1095.47 109.444Z" fill="#193F4C"/>
<path d="M951.02 182.187L1012.08 227.228L1011.21 228.404L950.157 183.363L951.02 182.187Z" fill="#193F4C"/>
<path d="M1026.32 54.5022L1027.52 55.3356L949.382 167.893L948.187 167.059L1026.32 54.5022Z" fill="#193F4C"/>
<path d="M1050.46 32.4151L1121.53 97.8094L1120.92 98.4724L1049.85 33.0781L1050.46 32.4151Z" fill="#193F4C"/>
<path d="M1044.54 32.9756L1118.81 98.7177L1118.22 99.393L1043.94 33.651L1044.54 32.9756Z" fill="#193F4C"/>
<path d="M1039.89 34.2859L1117 98.7235L1116.42 99.4156L1039.32 34.9779L1039.89 34.2859Z" fill="#193F4C"/>
</svg>
